<svg width="122" height="36" viewBox="0 0 122 36" xmlns="http://www.w3.org/2000/svg" fill="#FF8800">
<g clip-path="url(#clip0_5682_1471)" fill-rule="evenodd">
<text x="63%" y="55%" font-size="20" 
font-weight="400" fill="#000000" font-family="Impact" 
text-anchor="middle" dominant-baseline="middle">ChatWise</text>


<path d="M17.4213 26.7354H12.8296L11.1277 28.4372C11.028 28.5369 10.9601 28.6639 10.9326 28.8022C10.9051 28.9405 10.9193 29.0838 10.9732 29.2141C11.0272 29.3443 11.1185 29.4557 11.2358 29.534C11.353 29.6123 11.4908 29.6541 11.6318 29.6541H18.6192C18.7602 29.6541 18.898 29.6123 19.0153 29.534C19.1325 29.4557 19.2239 29.3443 19.2778 29.2141C19.3318 29.0838 19.3459 28.9405 19.3184 28.8022C19.2909 28.6639 19.223 28.5369 19.1233 28.4372L17.4213 26.7354Z" fill="currentColor"/>
<path d="M30.04 13.3823H29.1348V19.7499H30.04C30.1305 19.7499 30.2201 19.732 30.3037 19.6974C30.3873 19.6628 30.4633 19.612 30.5273 19.548C30.5913 19.484 30.642 19.4081 30.6767 19.3244C30.7113 19.2408 30.7291 19.1512 30.7291 19.0607V14.0715C30.7291 13.8887 30.6565 13.7134 30.5273 13.5842C30.398 13.4549 30.2227 13.3823 30.04 13.3823Z" fill="currentColor"/>
<path d="M1.92296 13.3823H1.01776C0.834985 13.3823 0.659698 13.4549 0.530458 13.5842C0.401219 13.7134 0.328613 13.8887 0.328613 14.0715V19.0607C0.328611 19.1512 0.346435 19.2408 0.381067 19.3244C0.415699 19.4081 0.466461 19.484 0.530455 19.548C0.594448 19.612 0.670419 19.6628 0.754031 19.6974C0.837643 19.732 0.927258 19.7499 1.01776 19.7499H1.92296V13.3823Z" fill="currentColor"/>
<path d="M19.0238 14.2251C18.682 14.2251 18.3541 14.3609 18.1124 14.6026C17.8707 14.8443 17.7349 15.1722 17.7349 15.514V16.4382C17.7349 16.7801 17.8707 17.108 18.1124 17.3497C18.3541 17.5914 18.682 17.7272 19.0239 17.7272C19.3657 17.7272 19.6936 17.5914 19.9353 17.3497C20.1771 17.108 20.3129 16.7801 20.3129 16.4382V15.5141C20.3129 15.3448 20.2796 15.1772 20.2148 15.0208C20.15 14.8644 20.055 14.7223 19.9353 14.6026C19.8156 14.4829 19.6735 14.388 19.5171 14.3232C19.3607 14.2584 19.1931 14.2251 19.0238 14.2251Z" fill="currentColor"/>
<path d="M12.3012 14.2251C11.9593 14.2251 11.6315 14.3609 11.3897 14.6026C11.148 14.8443 11.0122 15.1722 11.0122 15.514V16.4382C11.0122 16.7801 11.148 17.108 11.3897 17.3497C11.6315 17.5914 11.9593 17.7272 12.3012 17.7272C12.6431 17.7272 12.9709 17.5914 13.2127 17.3497C13.4544 17.108 13.5902 16.7801 13.5902 16.4382V15.5141C13.5902 15.3448 13.5569 15.1772 13.4921 15.0208C13.4273 14.8644 13.3324 14.7223 13.2127 14.6026C13.093 14.4829 12.9509 14.388 12.7945 14.3232C12.6381 14.2584 12.4704 14.2251 12.3012 14.2251Z" fill="currentColor"/>
<path d="M23.3607 6.91333H7.69709C6.3139 6.91489 4.98782 7.46505 4.00976 8.44311C3.0317 9.42117 2.48154 10.7473 2.47998 12.1304V20.9612C2.48154 22.3444 3.03169 23.6705 4.00975 24.6486C4.98781 25.6266 6.3139 26.1768 7.69709 26.1784H23.3607C24.7439 26.1768 26.07 25.6267 27.0481 24.6486C28.0262 23.6705 28.5764 22.3444 28.5779 20.9612V12.1304C28.5763 10.7472 28.0262 9.42115 27.0481 8.44309C26.07 7.46503 24.7439 6.91487 23.3607 6.91333ZM23.7988 20.9085C23.7988 21.1577 23.6998 21.3968 23.5235 21.573C23.3473 21.7492 23.1083 21.8482 22.859 21.8482H15.2189C14.0629 21.8482 12.9263 22.1453 11.9181 22.711L9.355 24.1492V21.8483H8.19882C7.94958 21.8483 7.71055 21.7493 7.53432 21.573C7.35808 21.3968 7.25907 21.1578 7.25906 20.9085V11.547C7.25907 11.2978 7.35808 11.0588 7.53432 10.8825C7.71056 10.7063 7.94958 10.6073 8.19882 10.6073H22.859C23.1082 10.6073 23.3472 10.7063 23.5235 10.8825C23.6997 11.0588 23.7987 11.2978 23.7987 11.5471L23.7988 20.9085Z" fill="currentColor"/>
</g>
<defs>
<clipPath id="clip0_5682_1471">
<rect width="121" height="36" fill="white"/>
</clipPath>
</defs>
</svg>
